# xmcd
#
# Track frame offsets:
#	150
#	22018
#	35767
#	50570
#	66485
#	84244
#	107547
#	122345
#	140337
#	142466
#	159224
#	175294
#	191424
#	194211
#	218644
#	246902
#
# Disc length: 3409 seconds
# Revision: 0
# Processed by: cddbd v1.5.2PL0 Copyright (c) Steve Scherf et al.
# Submitted via: dBpowerAMP V12.0
#
DISCID=ee0d4f10
DTITLE=Gunnar and The Grizzly Boys - Live
DYEAR=2015
DGENRE=Country Rock
TTITLE0=Could Be Me
TTITLE1=I'm A Ramblin' Man
TTITLE2=Country Girls
TTITLE3=Country My Whole Life
TTITLE4=Hillbilly Music Man
TTITLE5=Country Side
TTITLE6=Country Boy Tan Lines
TTITLE7=Guns
TTITLE8=Tuning Break
TTITLE9=Feenin'
TTITLE10=Folsom Prison Blues
TTITLE11=Pedal To The Floor
TTITLE12=Do the Dip
TTITLE13=Old Microphone
TTITLE14=Standard American
TTITLE15=Sweet Tea
EXTD=
EXTT0=
EXTT1=
EXTT2=
EXTT3=
EXTT4=
EXTT5=
EXTT6=
EXTT7=
EXTT8=
EXTT9=
EXTT10=
EXTT11=
EXTT12=
EXTT13=
EXTT14=
EXTT15=
PLAYORDER=
